<svg width="24" height="20" fill="none" xmlns="http://www.w3.org/2000/svg"><path d="M6.68552 6.51304L4.09018 8.96522l7.13492 6.77388L24 3.62609l-2.5953-2.46087-10.1796 9.65218-4.53958-4.30436z" fill="#fff"/><path d="M19.2587 17.3913c0 .2306-.0966.4518-.2686.6149-.172.1631-.4053.2547-.6485.2547H2.75124c-.24322 0-.47649-.0916-.64847-.2547-.17199-.1631-.26861-.3843-.26861-.6149V2.6087c0-.23063.09662-.4518.26861-.61488.17198-.16308.40525-.25469.64847-.25469H18.2591l1.449-1.382608C19.2932.126574 18.8221.00365521 18.3416 0H2.75124C2.02157 0 1.32178.274844.80582.764069.289862 1.25329 0 1.91683 0 2.6087v14.7826c0 .6919.289862 1.3554.80582 1.8446.51596.4893 1.21575.7641 1.94542.7641H18.3416c.7297 0 1.4295-.2748 1.9454-.7641.516-.4892.8059-1.1527.8059-1.8446V8.84348l-1.8342 1.73912v6.8087z" fill="#fff"/></svg>