<svg version="1.1" id="Слой_1" xmlns="http://www.w3.org/2000/svg" x="0" y="0" viewBox="0 0 24 20" xml:space="preserve"><style>.st0{fill:#fff}</style><path class="st0" d="M6.7 5.5L4.1 8l7.1 6.8L24 2.6 21.4.1 11.2 9.8 6.7 5.5z"/><path class="st0" d="M18.3 17.4c0 .2-.1.5-.3.6-.2.2-.4.3-.6.3H2.6c-.2 0-.5-.1-.6-.3-.2-.2-.3-.4-.3-.6V2.6c0-.2.1-.4.3-.6.2-.2.4-.3.6-.3h14.7L18.7.3c-.4-.2-.9-.3-1.3-.3H2.6C1.9 0 1.3.3.8.8S0 1.9 0 2.6v14.8c0 .7.3 1.4.8 1.8.5.5 1.1.8 1.8.8h14.8c.7 0 1.4-.3 1.8-.8.5-.5.8-1.2.8-1.8V8.8l-1.7 1.7v6.9z"/><path class="st0" d="M17.4 1.7c.2 0 .5.1.6.3.2.2.3.4.3.6v14.8c0 .2-.1.5-.3.6-.2.2-.4.3-.6.3H2.6c-.2 0-.5-.1-.6-.3s-.3-.4-.3-.6V2.6c0-.2.1-.4.3-.6s.4-.3.6-.3h14.8zm0-1.7H2.6C1.9 0 1.3.3.8.8S0 1.9 0 2.6v14.8c0 .7.3 1.4.8 1.8.5.5 1.1.8 1.8.8h14.8c.7 0 1.4-.3 1.8-.8.5-.5.8-1.2.8-1.8V2.6c0-.7-.3-1.4-.8-1.8-.5-.5-1.1-.8-1.8-.8z"/></svg>