<svg width="49" height="49" fill="none" xmlns="http://www.w3.org/2000/svg"><circle cx="24.5" cy="24.5" r="23.5" stroke="#323232" stroke-width="2"/><path d="M32.0618 19.7151c.5437-1.1131.854-2.3194.9129-3.5492.059-1.2297-.1346-2.4586-.5696-3.6156-.046-.141-.1338-.2658-.2526-.3589-.1187-.0931-.263-.1504-.4151-.1649-.1521-.0145-.3052.0146-.4404.0835-.1352.069-.2465.1748-.32.3044-.9912 1.7138-3.1217 4.477-4.6826 4.6054h-.0702c-.7176-.1365-1.4462-.2123-2.1774-.2265-.7338.014-1.4649.0898-2.1852.2265h-.0546c-1.5608-.1208-3.7226-2.884-4.7215-4.5978-.0697-.1372-.1807-.2506-.3185-.3254-.1377-.0748-.2957-.1074-.453-.0935-.1573.0139-.3065.0737-.4279.1714-.1215.0977-.2094.2287-.2522.3758-.4425 1.1529-.6435 2.3794-.5912 3.6082.0522 1.2288.3567 2.4352.8955 3.549-1.3579.1661-3.0826.5889-3.707 1.6534-.1514.2523-.2312.5388-.2312.8305 0 .2917.0798.5782.2312.8305.1788.3084.4449.5611.767.7283.3221.1672.6869.2419 1.0514.2154.6467-.0128 1.2859-.1354 1.8886-.3624-.0053.4074.0287.8143.1015 1.2155.3484 1.3412.805 2.6539 1.3657 3.9259.1483.3549.3122.755.3981.9966-.2564.606-.4575 1.2325-.601 1.8724-.037.4521.0213.9067.1716 1.3364.1503.4296.3893.8251.7025 1.1625C19.2082 35.3658 21.1983 36 24.0234 36c2.8251 0 4.823-.6342 5.9468-1.8875.3148-.3364.5548-.7318.7052-1.1617.1503-.4298.2078-.885.1689-1.3372-.1408-.6397-.3393-1.2662-.5931-1.8724.0858-.2416.2497-.6342.3902-.9966.5666-1.2698 1.0234-2.583 1.3657-3.9259.0788-.4005.1154-.8078.1093-1.2155.583.2203 1.2006.3428 1.8262.3624.3655.0261.7312-.0487 1.0545-.2158.3233-.167.5909-.4195.7717-.7279.1514-.2523.2312-.5388.2312-.8305 0-.2917-.0798-.5782-.2312-.8305-.6166-1.0268-2.3413-1.4797-3.707-1.6458zm-.7414-5.0131c.2814 1.5788.0066 3.2033-.7805 4.6129-.1956-.2297-.404-.449-.6243-.6568-.441-.3922-.9443-.7134-1.4906-.9513 1.1256-.8447 2.1033-1.8593 2.8954-3.0048zm-14.6017 0c.7842 1.1535 1.7598 2.1738 2.8875 3.0199-.5453.2313-1.0445.5533-1.475.9513-.2234.2071-.4345.4264-.6321.6568-.7894-1.4143-1.0643-3.0443-.7804-4.628zm-3.0749 7.5951c-.0702-.1208-.0468-.1585 0-.1887.1795-.2945 1.0848-.755 2.8173-.9287-.0858.219-.1639.4379-.2341.6644-1.0145.5058-2.3725.8229-2.5832.453zm16.8259 2.2649c-.3269 1.2394-.7495 2.4533-1.2643 3.6315-.2038.4616-.3835.9328-.5385 1.4118l-.0468.2341.0858.2114c.2469.5756.4478 1.1688.601 1.7742.0082.2381-.0324.4754-.1194.6983-.0871.2229-.2189.4269-.3879.6002-.5619.6267-1.8418 1.3665-4.7684 1.3665-2.9266 0-4.2065-.7549-4.7684-1.3665-.3369-.3527-.5188-.8184-.5072-1.2985.1563-.6055.3598-1.1986.6087-1.7742l.0858-.2114-.0546-.2341c-.1465-.4832-.3237-.9572-.5307-1.4194-.5238-1.1841-.9517-2.4058-1.2799-3.6541-.1488-.8701-.0759-1.7623.2124-2.5991.2883-.8367.7834-1.5928 1.4421-2.2025 1.1785-1.1476 3.8475-1.4043 4.7762-1.4118.9287-.0076 3.5431.2566 4.7918 1.4269.6628.6039 1.1613 1.3567 1.4512 2.1917.29.835.3625 1.7263.2111 2.5948v.0302zm3.9021-2.2649c-.2029.3624-1.5608.0528-2.5286-.4454-.0624-.2265-.1404-.4455-.2263-.672 1.7169.1737 2.6144.6342 2.7861.9287.039.0302.0547.0679-.0156.1887h-.0156z" fill="#323232"/></svg>