<svg width="49" height="49" fill="none" xmlns="http://www.w3.org/2000/svg"><circle cx="24.5" cy="24.5" r="23.5" stroke="#323232" stroke-width="2"/><path d="M27.5905 15.1189c0-1.0924-.4214-2.14-1.1716-2.9125C25.6688 11.434 24.6514 11 23.5905 11c-1.0609 0-2.0783.434-2.8284 1.2064-.7502.7725-1.1716 1.8201-1.1716 2.9125v11.9884c-1.0255 1.0777-1.5969 2.5282-1.5904 4.037-.0028.9663.2274 1.9182.6699 2.7703.4425.8521 1.0835 1.5778 1.8654 2.112.782.5342 1.6804.8602 2.6149.9488.9344.0886 1.8756-.063 2.7391-.4413.8635-.3782 1.6223-.9712 2.2085-1.7258.5861-.7547.9812-1.6473 1.1498-2.5978.1686-.9506.1054-1.9294-.1838-2.8487-.2892-.9192-.7955-1.7502-1.4734-2.4183V15.1189zm.1431 16.0254c.0081.7146-.1614 1.4194-.4923 2.0476-.3309.6281-.8122 1.1588-1.3982 1.5415-.5861.3828-1.2574.6049-1.9502.6454-.6929.0404-1.3843-.1021-2.0086-.4142-.6243-.3121-1.1608-.7833-1.5585-1.3689-.3978-.5856-.6435-1.2662-.714-1.9771-.0704-.7109.0367-1.4286.3114-2.0849.2746-.6563.7076-1.2294 1.2578-1.6649V15.1189c0-.658.2538-1.2891.7057-1.7544.4519-.4653 1.0647-.7268 1.7038-.7268.639 0 1.2519.2615 1.7038.7268.4519.4653.7057 1.0964.7057 1.7544v12.5943c.5367.3851.9748.8984 1.2767 1.496.3019.5975.4587 1.2615.4569 1.9351z" fill="#323232"/><path d="M24.4573 28.5812V15.1763c0-.2172-.0838-.4255-.2329-.5791-.1492-.1535-.3514-.2398-.5623-.2398-.2109 0-.4132.0863-.5623.2398-.1492.1536-.233.3619-.233.5791v13.4049c-.5305.1932-.9777.5733-1.2625 1.0732-.2847.4998-.3887 1.0872-.2936 1.6584.0952.5711.3834 1.0893.8137 1.4628.4302.3735.9749.5784 1.5377.5784.5627 0 1.1074-.2049 1.5377-.5784.4302-.3735.7184-.8917.8136-1.4628.0951-.5712-.0088-1.1586-.2936-1.6584-.2847-.4999-.7319-.88-1.2625-1.0732zM34 14.2018h-4.7714v1.6377H34v-1.6377zM34 17.4773h-4.7714v1.6377H34v-1.6377zM34 20.7528h-4.7714v1.6377H34v-1.6377zM34 24.0283h-4.7714v1.6377H34v-1.6377z" fill="#323232"/></svg>