<svg xmlns="http://www.w3.org/2000/svg" viewBox="0 0 22 22"><path d="M11 3.5c1.5 0 2.9.4 4.2 1.3 1.2.8 2.2 2 2.8 3.4.6 1.4.7 2.9.4 4.3s-1 2.8-2 3.8-2.4 1.8-3.8 2-3 .1-4.3-.4c-1.4-.6-2.5-1.5-3.4-2.8-.9-1.2-1.4-2.6-1.4-4.1 0-2 .8-3.9 2.2-5.3C7.1 4.3 9 3.5 11 3.5zM11 0C8.8 0 6.7.6 4.9 1.9 3.1 3.1 1.7 4.8.8 6.8c-.8 2-1 4.2-.6 6.3.4 2.1 1.5 4.1 3 5.6s3.5 2.6 5.6 3c2.1.4 4.3.2 6.4-.6 2-.8 3.7-2.2 4.9-4.1 1.2-1.8 1.9-3.9 1.9-6.1 0-2.9-1.2-5.7-3.2-7.8C16.7 1.2 13.9 0 11 0zm0 15c2.2 0 4-1.8 4-4s-1.8-4-4-4-4 1.8-4 4 1.8 4 4 4z" fill="#fff"/></svg>