<svg width="22" height="22" fill="none" xmlns="http://www.w3.org/2000/svg"><path d="M11 3.52c1.4794 0 2.9256.43869 4.1557 1.26061 1.23.82191 2.1888 1.99012 2.7549 3.35692.5662 1.36679.7143 2.87077.4257 4.32177s-1.001 2.7838-2.0471 3.8299-2.3789 1.7585-3.8299 2.0471c-1.451.2886-2.95498.1405-4.32177-.4257-1.36679-.5661-2.53501-1.5249-3.35692-2.7549C3.9587 13.9256 3.52 12.4794 3.52 11c.00233-1.98311.79115-3.88432 2.19342-5.28659C7.11568 4.31115 9.0169 3.52233 11 3.52zM11 0C8.82441 0 6.69767.645139 4.88873 1.85383 3.07979 3.06253 1.66989 4.78049.83733 6.79048.00476611 8.80047-.213071 11.0122.211367 13.146c.424437 2.1338 1.472083 4.0938 3.010463 5.6322 1.53838 1.5383 3.49839 2.586 5.63218 3.0104 2.13379.4245 4.34549.2066 6.35549-.6259 2.01-.8326 3.728-2.2425 4.9367-4.0514C21.3549 15.3023 22 13.1756 22 11c0-2.91738-1.1589-5.71528-3.2218-7.77818C16.7153 1.15893 13.9174 0 11 0z" fill="#fff"/><path d="M11 14.96c2.1871 0 3.96-1.7729 3.96-3.96 0-2.18701-1.7729-3.95996-3.96-3.95996-2.18701 0-3.95996 1.77295-3.95996 3.95996 0 2.1871 1.77295 3.96 3.95996 3.96z" fill="#fff"/></svg>