<svg xmlns="http://www.w3.org/2000/svg" xmlns:xlink="http://www.w3.org/1999/xlink" viewBox="0 0 31 36">
<image width="102" height="105" xlink:href="244B91BC.png" transform="translate(-36 -35)" overflow="visible" opacity=".5"/><path d="M18.2 28.3h-7v4.3H4.6v-4.3H.2V23h4.5v-1.7H.2V16h4.5V.6h12.4c2.4 0 4.5.4 6.3 1.3 1.8.9 3.2 2.1 4.2 3.7s1.5 3.4 1.5 5.5c0 3.2-1.1 5.7-3.2 7.5-2.1 1.8-5.1 2.7-8.9 2.7h-5.7V23h7v5.3zm-7-12.3h5.7c3.7 0 5.5-1.6 5.5-4.9 0-1.5-.5-2.8-1.4-3.7-.9-1-2.2-1.4-3.9-1.5h-5.9V16z" fill="#fff"/></svg>