<?xml version="1.0" encoding="utf-8"?>
<!-- Generator: Adobe Illustrator 23.0.1, SVG Export Plug-In . SVG Version: 6.00 Build 0)  -->
<svg version="1.1" id="Слой_1" xmlns="http://www.w3.org/2000/svg" xmlns:xlink="http://www.w3.org/1999/xlink" x="0px" y="0px"
	 viewBox="0 0 50 40" style="enable-background:new 0 0 50 40;" xml:space="preserve">
<style type="text/css">
	.st0{display:none;fill:#6D3D90;}
	.st1{fill:#FFFFFF;}
</style>
<rect x="-37.5" y="0" class="st0" width="124.4" height="41.3"/>
<g>
	
		<image style="overflow:visible;opacity:0.5;" width="48" height="50" xlink:href="1DA96B7E.png"  transform="matrix(1 0 0 1 7.3548 -3.5484)">
	</image>
	<g>
		<path class="st1" d="M35.2,32.2h-7v4.3h-6.6v-4.3h-4.5v-5.3h4.5v-1.7h-4.5v-5.3h4.5V4.5h12.4c2.4,0,4.5,0.4,6.3,1.3
			c1.8,0.9,3.2,2.1,4.2,3.7c1,1.6,1.5,3.4,1.5,5.5c0,3.2-1.1,5.7-3.2,7.5c-2.1,1.8-5.1,2.7-8.9,2.7h-5.7v1.7h7V32.2z M28.3,19.8h5.7
			c3.7,0,5.5-1.6,5.5-4.9c0-1.5-0.5-2.8-1.4-3.7c-0.9-1-2.2-1.4-3.9-1.5h-5.9V19.8z"/>
	</g>
</g>
</svg>
