<?xml version="1.0" encoding="utf-8"?>
<!-- Generator: Adobe Illustrator 23.0.1, SVG Export Plug-In . SVG Version: 6.00 Build 0)  -->
<svg version="1.1" id="Слой_1" xmlns="http://www.w3.org/2000/svg" xmlns:xlink="http://www.w3.org/1999/xlink" x="0px" y="0px"
	 viewBox="0 0 32 32" style="enable-background:new 0 0 32 32;" xml:space="preserve">
<style type="text/css">
	.st0{fill:#FFFFFF;}
</style>
<g>
	<path class="st0" d="M20.9,16c0,1.3-0.5,2.6-1.5,3.5C18.5,20.4,17.3,21,16,21s-2.6-0.5-3.5-1.5C11.5,18.6,11,17.3,11,16
		c0-0.4,0-0.8,0.1-1.1h-0.9v6.8h11.4v-6.8h-0.9C20.8,15.2,20.9,15.6,20.9,16z"/>
	<path class="st0" d="M16,18.7c0.5,0,1-0.2,1.5-0.5c0.4-0.3,0.8-0.7,1-1.2c0.2-0.5,0.2-1,0.1-1.5c-0.1-0.5-0.4-1-0.7-1.4
		c-0.4-0.4-0.8-0.6-1.4-0.7c-0.5-0.1-1,0-1.5,0.2c-0.5,0.2-0.9,0.5-1.2,1c-0.3,0.4-0.4,1-0.4,1.5c0,0.4,0.1,0.7,0.2,1
		c0.1,0.3,0.3,0.6,0.6,0.9c0.2,0.2,0.5,0.4,0.9,0.6C15.3,18.6,15.6,18.7,16,18.7z"/>
	<path class="st0" d="M21.7,10.3h-3v3h3V10.3z"/>
	<path class="st0" d="M16,0c-3.2,0-6.3,0.9-8.9,2.7C4.5,4.5,2.4,7,1.2,9.9C0,12.8-0.3,16,0.3,19.1c0.6,3.1,2.1,6,4.4,8.2
		s5.1,3.8,8.2,4.4c3.1,0.6,6.3,0.3,9.2-0.9c2.9-1.2,5.4-3.3,7.2-5.9c1.8-2.6,2.7-5.7,2.7-8.9c0-4.2-1.7-8.3-4.7-11.3S20.2,0,16,0z
		 M24,21.7c0,0.3-0.1,0.6-0.2,0.9c-0.1,0.3-0.3,0.5-0.5,0.8c-0.2,0.2-0.5,0.4-0.8,0.5C22.3,23.9,22,24,21.7,24H10.3
		c-0.3,0-0.6-0.1-0.9-0.2c-0.3-0.1-0.5-0.3-0.7-0.5c-0.2-0.2-0.4-0.5-0.5-0.7C8.1,22.3,8,22,8,21.7V10.3C8,10,8.1,9.7,8.2,9.4
		c0.1-0.3,0.3-0.5,0.5-0.7c0.2-0.2,0.5-0.4,0.7-0.5C9.7,8.1,10,8,10.3,8h11.4c0.3,0,0.6,0.1,0.9,0.2c0.3,0.1,0.5,0.3,0.8,0.5
		c0.2,0.2,0.4,0.5,0.5,0.8C23.9,9.7,24,10,24,10.3V21.7z"/>
</g>
</svg>
