<?xml version="1.0" encoding="utf-8"?>
<!-- Generator: Adobe Illustrator 23.0.1, SVG Export Plug-In . SVG Version: 6.00 Build 0)  -->
<svg version="1.1" id="Слой_1" xmlns="http://www.w3.org/2000/svg" xmlns:xlink="http://www.w3.org/1999/xlink" x="0px" y="0px"
	 viewBox="0 0 32 32" style="enable-background:new 0 0 32 32;" xml:space="preserve">
<style type="text/css">
	.st0{opacity:0.8;fill:#FFFFFF;fill-opacity:0.8;}
</style>
<path class="st0" d="M16.6,14.5c0.3,0,0.6-0.1,1-0.2c0.3-0.1,0.5-0.3,0.6-0.6c0.1-0.3,0.2-0.5,0.1-0.8c0-0.2-0.1-0.5-0.2-0.7
	c-0.1-0.2-0.3-0.4-0.6-0.5c-0.3-0.1-0.7-0.2-1-0.2h-2v3h0.6C15.8,14.5,16.2,14.5,16.6,14.5z"/>
<path class="st0" d="M18.1,17.1C17.8,17,17.4,17,17,17h-2.4v3.5h2.4c0.4,0,0.8-0.1,1.2-0.3c0.3-0.1,0.6-0.3,0.8-0.6
	c0.1-0.3,0.2-0.6,0.2-0.9c0-0.4-0.1-0.7-0.3-1C18.8,17.4,18.5,17.2,18.1,17.1z"/>
<path class="st0" d="M16,0c-3.2,0-6.3,0.9-8.9,2.7C4.5,4.5,2.4,7,1.2,9.9C0,12.8-0.3,16,0.3,19.1c0.6,3.1,2.1,6,4.4,8.2
	s5.1,3.8,8.2,4.4c3.1,0.6,6.3,0.3,9.2-0.9c2.9-1.2,5.4-3.3,7.2-5.9c1.8-2.6,2.7-5.7,2.7-8.9c0-4.2-1.7-8.3-4.7-11.3S20.2,0,16,0z
	 M22.6,20.5c-0.3,0.5-0.6,1-1.1,1.3c-0.5,0.4-1.2,0.7-1.8,0.9C18.8,22.9,18,23,17.1,23H11V9h5.5c0.8,0,1.7,0,2.5,0.1
	c0.5,0.1,1.1,0.3,1.6,0.5c0.5,0.2,0.9,0.6,1.2,1.1c0.3,0.5,0.4,1,0.4,1.6c0,0.6-0.2,1.3-0.5,1.8c-0.4,0.5-0.9,1-1.5,1.2v0.1
	c0.8,0.1,1.6,0.5,2.2,1.1c0.5,0.6,0.8,1.4,0.8,2.3C23,19.3,22.9,20,22.6,20.5z"/>
</svg>
