<svg width="148" height="98" viewBox="0 0 148 98" fill="none" xmlns="http://www.w3.org/2000/svg">
<path d="M130.686 83.513L128.09 85.9652L135.225 92.7391L148 80.6261L145.405 78.1652L135.225 87.8174L130.686 83.513Z" fill="white" fill-opacity="0.4"/>
<path d="M143.259 94.3913C143.259 94.6219 143.162 94.8431 142.99 95.0062C142.818 95.1693 142.585 95.2609 142.342 95.2609H126.751C126.508 95.2609 126.275 95.1693 126.103 95.0062C125.931 94.8431 125.834 94.6219 125.834 94.3913V79.6087C125.834 79.3781 125.931 79.1569 126.103 78.9938C126.275 78.8307 126.508 78.7391 126.751 78.7391H142.259L143.708 77.3565C143.293 77.1266 142.822 77.0037 142.342 77H126.751C126.022 77 125.322 77.2748 124.806 77.7641C124.29 78.2533 124 78.9168 124 79.6087V94.3913C124 95.0832 124.29 95.7467 124.806 96.2359C125.322 96.7252 126.022 97 126.751 97H142.342C143.071 97 143.771 96.7252 144.287 96.2359C144.803 95.7467 145.093 95.0832 145.093 94.3913V85.8435L143.259 87.5826V94.3913Z" fill="white" fill-opacity="0.4"/>
<path d="M130.686 45.513L128.09 47.9652L135.225 54.7391L148 42.6261L145.405 40.1652L135.225 49.8174L130.686 45.513Z" fill="white"/>
<path d="M143.259 56.3913C143.259 56.6219 143.162 56.8431 142.99 57.0062C142.818 57.1693 142.585 57.2609 142.342 57.2609H126.751C126.508 57.2609 126.275 57.1693 126.103 57.0062C125.931 56.8431 125.834 56.6219 125.834 56.3913V41.6087C125.834 41.3781 125.931 41.1569 126.103 40.9938C126.275 40.8307 126.508 40.7391 126.751 40.7391H142.259L143.708 39.3565C143.293 39.1266 142.822 39.0037 142.342 39H126.751C126.022 39 125.322 39.2748 124.806 39.7641C124.29 40.2533 124 40.9168 124 41.6087V56.3913C124 57.0832 124.29 57.7467 124.806 58.2359C125.322 58.7252 126.022 59 126.751 59H142.342C143.071 59 143.771 58.7252 144.287 58.2359C144.803 57.7467 145.093 57.0832 145.093 56.3913V47.8435L143.259 49.5826V56.3913Z" fill="white"/>
<path d="M130.686 7.51304L128.09 9.96522L135.225 16.7391L148 4.62609L145.405 2.16522L135.225 11.8174L130.686 7.51304Z" fill="white" fill-opacity="0.8"/>
<path d="M143.259 18.3913C143.259 18.6219 143.162 18.8431 142.99 19.0062C142.818 19.1693 142.585 19.2609 142.342 19.2609H126.751C126.508 19.2609 126.275 19.1693 126.103 19.0062C125.931 18.8431 125.834 18.6219 125.834 18.3913V3.6087C125.834 3.37807 125.931 3.1569 126.103 2.99382C126.275 2.83074 126.508 2.73913 126.751 2.73913H142.259L143.708 1.35652C143.293 1.12657 142.822 1.00366 142.342 1H126.751C126.022 1 125.322 1.27484 124.806 1.76407C124.29 2.25329 124 2.91683 124 3.6087V18.3913C124 19.0832 124.29 19.7467 124.806 20.2359C125.322 20.7252 126.022 21 126.751 21H142.342C143.071 21 143.771 20.7252 144.287 20.2359C144.803 19.7467 145.093 19.0832 145.093 18.3913V9.84348L143.259 11.5826V18.3913Z" fill="white" fill-opacity="0.8"/>
<path d="M93 79.52C94.4794 79.52 95.9256 79.9587 97.1557 80.7806C98.3857 81.6025 99.3445 82.7707 99.9106 84.1375C100.477 85.5043 100.625 87.0083 100.336 88.4593C100.048 89.9103 99.3353 91.2431 98.2892 92.2892C97.2431 93.3353 95.9103 94.0477 94.4593 94.3363C93.0083 94.6249 91.5043 94.4768 90.1375 93.9106C88.7707 93.3445 87.6025 92.3857 86.7806 91.1557C85.9587 89.9256 85.52 88.4794 85.52 87C85.5223 85.0169 86.3112 83.1157 87.7134 81.7134C89.1157 80.3111 91.0169 79.5223 93 79.52ZM93 76C90.8244 76 88.6977 76.6451 86.8887 77.8538C85.0798 79.0625 83.6699 80.7805 82.8373 82.7905C82.0048 84.8005 81.7869 87.0122 82.2114 89.146C82.6358 91.2798 83.6835 93.2398 85.2218 94.7782C86.7602 96.3165 88.7202 97.3642 90.854 97.7886C92.9878 98.2131 95.1995 97.9952 97.2095 97.1627C99.2195 96.3301 100.937 94.9202 102.146 93.1113C103.355 91.3023 104 89.1756 104 87C104 84.0826 102.841 81.2847 100.778 79.2218C98.7153 77.1589 95.9174 76 93 76V76Z" fill="white" fill-opacity="0.4"/>
<path d="M93 90.96C95.1871 90.96 96.96 89.1871 96.96 87C96.96 84.813 95.1871 83.04 93 83.04C90.813 83.04 89.04 84.813 89.04 87C89.04 89.1871 90.813 90.96 93 90.96Z" fill="white" fill-opacity="0.4"/>
<path d="M93 41.52C94.4794 41.52 95.9256 41.9587 97.1557 42.7806C98.3857 43.6025 99.3445 44.7707 99.9106 46.1375C100.477 47.5043 100.625 49.0083 100.336 50.4593C100.048 51.9103 99.3353 53.2431 98.2892 54.2892C97.2431 55.3353 95.9103 56.0477 94.4593 56.3363C93.0083 56.6249 91.5043 56.4768 90.1375 55.9106C88.7707 55.3445 87.6025 54.3857 86.7806 53.1557C85.9587 51.9256 85.52 50.4794 85.52 49C85.5223 47.0169 86.3112 45.1157 87.7134 43.7134C89.1157 42.3111 91.0169 41.5223 93 41.52ZM93 38C90.8244 38 88.6977 38.6451 86.8887 39.8538C85.0798 41.0625 83.6699 42.7805 82.8373 44.7905C82.0048 46.8005 81.7869 49.0122 82.2114 51.146C82.6358 53.2798 83.6835 55.2398 85.2218 56.7782C86.7602 58.3165 88.7202 59.3642 90.854 59.7886C92.9878 60.2131 95.1995 59.9952 97.2095 59.1627C99.2195 58.3301 100.937 56.9202 102.146 55.1113C103.355 53.3023 104 51.1756 104 49C104 46.0826 102.841 43.2847 100.778 41.2218C98.7153 39.1589 95.9174 38 93 38V38Z" fill="white"/>
<path d="M93 52.96C95.1871 52.96 96.96 51.1871 96.96 49C96.96 46.813 95.1871 45.04 93 45.04C90.813 45.04 89.04 46.813 89.04 49C89.04 51.1871 90.813 52.96 93 52.96Z" fill="white"/>
<path d="M93 3.52C94.4794 3.52 95.9256 3.95869 97.1557 4.78061C98.3857 5.60252 99.3445 6.77073 99.9106 8.13753C100.477 9.50432 100.625 11.0083 100.336 12.4593C100.048 13.9103 99.3353 15.2431 98.2892 16.2892C97.2431 17.3353 95.9103 18.0477 94.4593 18.3363C93.0083 18.6249 91.5043 18.4768 90.1375 17.9106C88.7707 17.3445 87.6025 16.3857 86.7806 15.1557C85.9587 13.9256 85.52 12.4794 85.52 11C85.5223 9.01689 86.3112 7.11568 87.7134 5.71341C89.1157 4.31115 91.0169 3.52233 93 3.52ZM93 0C90.8244 0 88.6977 0.645139 86.8887 1.85383C85.0798 3.06253 83.6699 4.78049 82.8373 6.79048C82.0048 8.80047 81.7869 11.0122 82.2114 13.146C82.6358 15.2798 83.6835 17.2398 85.2218 18.7782C86.7602 20.3165 88.7202 21.3642 90.854 21.7886C92.9878 22.2131 95.1995 21.9952 97.2095 21.1627C99.2195 20.3301 100.937 18.9202 102.146 17.1113C103.355 15.3023 104 13.1756 104 11C104 8.08262 102.841 5.28472 100.778 3.22182C98.7153 1.15893 95.9174 0 93 0V0Z" fill="white" fill-opacity="0.8"/>
<path d="M93 14.96C95.1871 14.96 96.96 13.1871 96.96 11C96.96 8.81299 95.1871 7.04004 93 7.04004C90.813 7.04004 89.04 8.81299 89.04 11C89.04 13.1871 90.813 14.96 93 14.96Z" fill="white" fill-opacity="0.8"/>
<path d="M59.3913 78.7391C59.6219 78.7391 59.8431 78.8307 60.0062 78.9938C60.1693 79.1569 60.2609 79.3781 60.2609 79.6087V94.3913C60.2609 94.6219 60.1693 94.8431 60.0062 95.0062C59.8431 95.1693 59.6219 95.2609 59.3913 95.2609H44.6087C44.3781 95.2609 44.1569 95.1693 43.9938 95.0062C43.8307 94.8431 43.7391 94.6219 43.7391 94.3913V79.6087C43.7391 79.3781 43.8307 79.1569 43.9938 78.9938C44.1569 78.8307 44.3781 78.7391 44.6087 78.7391H59.3913ZM59.3913 77H44.6087C43.9168 77 43.2533 77.2748 42.7641 77.7641C42.2748 78.2533 42 78.9168 42 79.6087V94.3913C42 95.0832 42.2748 95.7467 42.7641 96.2359C43.2533 96.7252 43.9168 97 44.6087 97H59.3913C60.0832 97 60.7467 96.7252 61.2359 96.2359C61.7252 95.7467 62 95.0832 62 94.3913V79.6087C62 78.9168 61.7252 78.2533 61.2359 77.7641C60.7467 77.2748 60.0832 77 59.3913 77V77Z" fill="white" fill-opacity="0.4"/>
<path d="M59.3913 40.7391C59.6219 40.7391 59.8431 40.8307 60.0062 40.9938C60.1693 41.1569 60.2609 41.3781 60.2609 41.6087V56.3913C60.2609 56.6219 60.1693 56.8431 60.0062 57.0062C59.8431 57.1693 59.6219 57.2609 59.3913 57.2609H44.6087C44.3781 57.2609 44.1569 57.1693 43.9938 57.0062C43.8307 56.8431 43.7391 56.6219 43.7391 56.3913V41.6087C43.7391 41.3781 43.8307 41.1569 43.9938 40.9938C44.1569 40.8307 44.3781 40.7391 44.6087 40.7391H59.3913ZM59.3913 39H44.6087C43.9168 39 43.2533 39.2748 42.7641 39.7641C42.2748 40.2533 42 40.9168 42 41.6087V56.3913C42 57.0832 42.2748 57.7467 42.7641 58.2359C43.2533 58.7252 43.9168 59 44.6087 59H59.3913C60.0832 59 60.7467 58.7252 61.2359 58.2359C61.7252 57.7467 62 57.0832 62 56.3913V41.6087C62 40.9168 61.7252 40.2533 61.2359 39.7641C60.7467 39.2748 60.0832 39 59.3913 39V39Z" fill="white"/>
<path d="M59.3913 2.73913C59.6219 2.73913 59.8431 2.83074 60.0062 2.99382C60.1693 3.1569 60.2609 3.37807 60.2609 3.6087V18.3913C60.2609 18.6219 60.1693 18.8431 60.0062 19.0062C59.8431 19.1693 59.6219 19.2609 59.3913 19.2609H44.6087C44.3781 19.2609 44.1569 19.1693 43.9938 19.0062C43.8307 18.8431 43.7391 18.6219 43.7391 18.3913V3.6087C43.7391 3.37807 43.8307 3.1569 43.9938 2.99382C44.1569 2.83074 44.3781 2.73913 44.6087 2.73913H59.3913ZM59.3913 1H44.6087C43.9168 1 43.2533 1.27484 42.7641 1.76407C42.2748 2.25329 42 2.91683 42 3.6087V18.3913C42 19.0832 42.2748 19.7467 42.7641 20.2359C43.2533 20.7252 43.9168 21 44.6087 21H59.3913C60.0832 21 60.7467 20.7252 61.2359 20.2359C61.7252 19.7467 62 19.0832 62 18.3913V3.6087C62 2.91683 61.7252 2.25329 61.2359 1.76407C60.7467 1.27484 60.0832 1 59.3913 1V1Z" fill="white" fill-opacity="0.8"/>
<path d="M11 79.52C12.4794 79.52 13.9256 79.9587 15.1557 80.7806C16.3857 81.6025 17.3445 82.7707 17.9106 84.1375C18.4768 85.5043 18.6249 87.0083 18.3363 88.4593C18.0477 89.9103 17.3353 91.2431 16.2892 92.2892C15.2431 93.3353 13.9103 94.0477 12.4593 94.3363C11.0083 94.6249 9.50432 94.4768 8.13753 93.9106C6.77074 93.3445 5.60252 92.3857 4.78061 91.1557C3.9587 89.9256 3.52 88.4794 3.52 87C3.52233 85.0169 4.31115 83.1157 5.71342 81.7134C7.11568 80.3111 9.0169 79.5223 11 79.52ZM11 76C8.82441 76 6.69767 76.6451 4.88873 77.8538C3.07979 79.0625 1.66989 80.7805 0.83733 82.7905C0.00476611 84.8005 -0.213071 87.0122 0.211367 89.146C0.635804 91.2798 1.68345 93.2398 3.22183 94.7782C4.76021 96.3165 6.72022 97.3642 8.85401 97.7886C10.9878 98.2131 13.1995 97.9952 15.2095 97.1627C17.2195 96.3301 18.9375 94.9202 20.1462 93.1113C21.3549 91.3023 22 89.1756 22 87C22 84.0826 20.8411 81.2847 18.7782 79.2218C16.7153 77.1589 13.9174 76 11 76V76Z" fill="white" fill-opacity="0.4"/>
<path d="M11 41.52C12.4794 41.52 13.9256 41.9587 15.1557 42.7806C16.3857 43.6025 17.3445 44.7707 17.9106 46.1375C18.4768 47.5043 18.6249 49.0083 18.3363 50.4593C18.0477 51.9103 17.3353 53.2431 16.2892 54.2892C15.2431 55.3353 13.9103 56.0477 12.4593 56.3363C11.0083 56.6249 9.50432 56.4768 8.13753 55.9106C6.77074 55.3445 5.60252 54.3857 4.78061 53.1557C3.9587 51.9256 3.52 50.4794 3.52 49C3.52233 47.0169 4.31115 45.1157 5.71342 43.7134C7.11568 42.3111 9.0169 41.5223 11 41.52ZM11 38C8.82441 38 6.69767 38.6451 4.88873 39.8538C3.07979 41.0625 1.66989 42.7805 0.83733 44.7905C0.00476611 46.8005 -0.213071 49.0122 0.211367 51.146C0.635804 53.2798 1.68345 55.2398 3.22183 56.7782C4.76021 58.3165 6.72022 59.3642 8.85401 59.7886C10.9878 60.2131 13.1995 59.9952 15.2095 59.1627C17.2195 58.3301 18.9375 56.9202 20.1462 55.1113C21.3549 53.3023 22 51.1756 22 49C22 46.0826 20.8411 43.2847 18.7782 41.2218C16.7153 39.1589 13.9174 38 11 38V38Z" fill="white"/>
<path d="M11 3.52C12.4794 3.52 13.9256 3.95869 15.1557 4.78061C16.3857 5.60252 17.3445 6.77073 17.9106 8.13753C18.4768 9.50432 18.6249 11.0083 18.3363 12.4593C18.0477 13.9103 17.3353 15.2431 16.2892 16.2892C15.2431 17.3353 13.9103 18.0477 12.4593 18.3363C11.0083 18.6249 9.50432 18.4768 8.13753 17.9106C6.77074 17.3445 5.60252 16.3857 4.78061 15.1557C3.9587 13.9256 3.52 12.4794 3.52 11C3.52233 9.01689 4.31115 7.11568 5.71342 5.71341C7.11568 4.31115 9.0169 3.52233 11 3.52ZM11 0C8.82441 0 6.69767 0.645139 4.88873 1.85383C3.07979 3.06253 1.66989 4.78049 0.83733 6.79048C0.00476611 8.80047 -0.213071 11.0122 0.211367 13.146C0.635804 15.2798 1.68345 17.2398 3.22183 18.7782C4.76021 20.3165 6.72022 21.3642 8.85401 21.7886C10.9878 22.2131 13.1995 21.9952 15.2095 21.1627C17.2195 20.3301 18.9375 18.9202 20.1462 17.1113C21.3549 15.3023 22 13.1756 22 11C22 8.08262 20.8411 5.28472 18.7782 3.22182C16.7153 1.15893 13.9174 0 11 0V0Z" fill="white" fill-opacity="0.8"/>
</svg>
